<svg xmlns="http://www.w3.org/2000/svg" width="50.541" height="41.764" viewBox="0 0 50.541 41.764">
  <g id="Group_42" data-name="Group 42" transform="translate(-206.682 -135.574)">
    <path id="Path_7" data-name="Path 7" d="M229.28,178.061h-1.074a.536.536,0,0,0-.577.482v13.372a.536.536,0,0,0,.577.481h1.074a.536.536,0,0,0,.577-.481V178.543A.536.536,0,0,0,229.28,178.061Z" transform="translate(-10.509 -20.313)" fill="none"/>
    <path id="Path_8" data-name="Path 8" d="M247.634,178.061H246.56a.536.536,0,0,0-.577.482v13.372a.536.536,0,0,0,.577.481h1.074a.536.536,0,0,0,.577-.481V178.543A.536.536,0,0,0,247.634,178.061Z" transform="translate(-19.718 -20.313)" fill="none"/>
    <path id="Path_9" data-name="Path 9" d="M284.342,178.061h-1.074a.536.536,0,0,0-.577.482v13.372a.536.536,0,0,0,.577.481h1.074a.535.535,0,0,0,.577-.481V178.543A.536.536,0,0,0,284.342,178.061Z" transform="translate(-38.134 -20.313)" fill="none"/>
    <path id="Path_10" data-name="Path 10" d="M265.988,178.061h-1.074a.536.536,0,0,0-.577.482v13.372a.536.536,0,0,0,.577.481h1.074a.535.535,0,0,0,.577-.481V178.543A.536.536,0,0,0,265.988,178.061Z" transform="translate(-28.926 -20.313)" fill="none"/>
    <path id="Path_11" data-name="Path 11" d="M253.78,169.106h-3.945a2.628,2.628,0,0,1-4.973,0H219.043a2.6,2.6,0,0,1-.625,1.006,2.637,2.637,0,0,1-3.729,0,2.608,2.608,0,0,1-.618-1.006h-3.945c-2.4,0-3.879,1.679-3.328,3.669l5.035,18.194c.339,1.225,2.055,2.188,3.844,2.188h32.552c1.788,0,3.5-.963,3.844-2.188l5.035-18.194C257.659,170.785,256.179,169.106,253.78,169.106Zm-34.432,18.316a.536.536,0,0,1-.577.481H217.7a.536.536,0,0,1-.577-.481V174.05a.536.536,0,0,1,.577-.482h1.074a.536.536,0,0,1,.577.482Zm9.146,0a.536.536,0,0,1-.577.481h-1.074a.536.536,0,0,1-.577-.481V174.05a.536.536,0,0,1,.577-.482h1.074a.536.536,0,0,1,.577.482Zm9.146,0a.535.535,0,0,1-.577.481h-1.074a.536.536,0,0,1-.577-.481V174.05a.536.536,0,0,1,.577-.482h1.074a.536.536,0,0,1,.577.482Zm9.146,0a.535.535,0,0,1-.577.481h-1.074a.536.536,0,0,1-.577-.481V174.05a.536.536,0,0,1,.577-.482h1.074a.536.536,0,0,1,.577.482Z" transform="translate(0 -15.82)"/>
    <g id="Path_12" data-name="Path 12" transform="translate(-7.292)" fill="#1a1818" stroke-miterlimit="10">
      <path d="M 223.8449859619141 156.0641326904297 C 222.8734741210938 156.0641326904297 221.9600982666016 155.6857757568359 221.2730865478516 154.9987640380859 C 220.8892822265625 154.614990234375 220.6009979248047 154.1482696533203 220.416259765625 153.6115570068359 C 219.9580688476563 152.2822113037109 220.2862396240234 150.8428497314453 221.2728424072266 149.8555908203125 C 221.9563140869141 149.1721496582031 222.8656158447266 148.7958831787109 223.83349609375 148.7958831787109 C 224.1100921630859 148.7958831787109 224.3881072998047 148.828125 224.6589202880859 148.8907318115234 L 236.5098571777344 137.040283203125 C 236.8096008300781 136.7398681640625 237.20947265625 136.5739898681641 237.635009765625 136.5739898681641 C 238.060546875 136.5739898681641 238.4604034423828 136.7398681640625 238.7609405517578 137.0410614013672 L 239.2320556640625 137.5121765136719 C 239.8524475097656 138.1325988769531 239.8524475097656 139.1420745849609 239.2321166992188 139.7624816894531 L 227.3825073242188 151.6120910644531 C 227.5351257324219 152.2692413330078 227.5025939941406 152.9581451416016 227.2814636230469 153.6081695556641 C 227.1017456054688 154.1372528076172 226.8104858398438 154.6054534912109 226.4159240722656 154.9993591308594 C 225.7298889160156 155.6857147216797 224.8165740966797 156.0641326904297 223.8449859619141 156.0641326904297 Z" stroke="none"/>
      <path d="M 223.8449859619141 155.0641326904297 C 224.5198516845703 155.0641326904297 225.1946716308594 154.806640625 225.7094116210938 154.2916564941406 C 226.0028991699219 153.9986572265625 226.2101745605469 153.6528472900391 226.3347473144531 153.2861022949219 C 226.5500183105469 152.6532897949219 226.5181274414063 151.9556732177734 226.2395935058594 151.3407897949219 L 238.5249633789063 139.055419921875 C 238.7556457519531 138.82470703125 238.7556457519531 138.4499969482422 238.5249633789063 138.2192840576172 L 238.0530700683594 137.7474060058594 C 237.9377136230469 137.6318054199219 237.7863616943359 137.5739898681641 237.635009765625 137.5739898681641 C 237.4836578369141 137.5739898681641 237.3323059082031 137.6318054199219 237.2169494628906 137.7474060058594 L 224.9310607910156 150.0327758789063 C 224.5831146240234 149.8751373291016 224.2080688476563 149.7958831787109 223.83349609375 149.7958831787109 C 223.1625823974609 149.7958831787109 222.4927825927734 150.0498809814453 221.9801940917969 150.5624542236328 C 221.2432250976563 151.2999267578125 221.0433959960938 152.3622741699219 221.36181640625 153.2861022949219 C 221.4878845214844 153.6523590087891 221.6876831054688 153.9991760253906 221.9801940917969 154.2916564941406 C 222.4951782226563 154.806640625 223.1701049804688 155.0641326904297 223.8449859619141 155.0641326904297 M 223.8449859619141 157.0641326904297 C 222.6063690185547 157.0641326904297 221.4418640136719 156.5817718505859 220.5659790039063 155.7058715820313 C 220.0738372802734 155.2137756347656 219.7053070068359 154.6186218261719 219.470703125 153.93701171875 C 218.8870544433594 152.2436981201172 219.3064575195313 150.4086151123047 220.5655059814453 149.1487274169922 C 221.4380798339844 148.2761535644531 222.5984954833984 147.7958831787109 223.83349609375 147.7958831787109 C 223.9937133789063 147.7958831787109 224.1543579101563 147.8043823242188 224.3143005371094 147.8211517333984 L 235.8027648925781 136.3331604003906 C 236.2907104492188 135.8441619873047 236.9419708251953 135.5739898681641 237.635009765625 135.5739898681641 C 238.3280487060547 135.5739898681641 238.9793090820313 135.8441619873047 239.4688110351563 136.3347320556641 L 239.9391632080078 136.8050537109375 C 240.9494171142578 137.8153991699219 240.9494323730469 139.4592590332031 239.9392700195313 140.4695434570313 L 228.4522857666016 151.9565124511719 C 228.5206604003906 152.6162109375 228.4466400146484 153.2880706787109 228.2281951904297 153.9302215576172 C 227.9987640380859 154.6055908203125 227.6266479492188 155.2036895751953 227.1224365234375 155.7070465087891 C 226.2482757568359 156.5816345214844 225.0837860107422 157.0641326904297 223.8449859619141 157.0641326904297 Z" stroke="none" fill="#fff"/>
    </g>
    <g id="Path_13" data-name="Path 13" transform="translate(-25.993)" fill="#1a1818" stroke-miterlimit="10">
      <path d="M 273.3447570800781 156.0641326904297 C 272.3731384277344 156.0641326904297 271.4598388671875 155.6857147216797 270.7730407714844 154.9985809326172 C 270.3792419433594 154.60546875 270.0879821777344 154.1372375488281 269.9081115722656 153.6077270507813 C 269.6871032714844 152.9580383300781 269.6546020507813 152.2692108154297 269.8072204589844 151.6120910644531 L 257.9576721191406 139.7625274658203 C 257.3372802734375 139.14208984375 257.3372802734375 138.1325836181641 257.9576721191406 137.5121765136719 L 258.4295654296875 137.0402984619141 C 258.730224609375 136.7396087646484 259.1299133300781 136.5739898681641 259.5549011230469 136.5739898681641 C 259.9803466796875 136.5739898681641 260.3801574707031 136.7398834228516 260.6806945800781 137.0410919189453 L 272.5308227539063 148.8907318115234 C 272.8016052246094 148.828125 273.0796508789063 148.7958831787109 273.3562316894531 148.7958831787109 C 274.3241271972656 148.7958831787109 275.2333984375 149.1721496582031 275.9166259765625 149.8553314208984 C 276.9031677246094 150.8424987792969 277.2315979003906 152.2816925048828 276.7740173339844 153.6114807128906 C 276.588134765625 154.1493225097656 276.2998046875 154.6156463623047 275.9165954589844 154.9987945556641 C 275.2296142578125 155.6857757568359 274.3162536621094 156.0641326904297 273.3447570800781 156.0641326904297 Z" stroke="none"/>
      <path d="M 273.3447570800781 155.0641326904297 C 274.0196228027344 155.0641326904297 274.6945495605469 154.806640625 275.2095336914063 154.2916564941406 C 275.5020446777344 153.9991760253906 275.7018432617188 153.6523590087891 275.8284301757813 153.2861022949219 C 276.1463317871094 152.3622741699219 275.946533203125 151.2999267578125 275.2095336914063 150.5624542236328 C 274.6969909667969 150.0499267578125 274.027099609375 149.7958831787109 273.3562316894531 149.7958831787109 C 272.9815979003906 149.7958831787109 272.6066589355469 149.8751068115234 272.2586669921875 150.0327758789063 L 259.9727783203125 137.7474060058594 C 259.8574523925781 137.6318054199219 259.7062072753906 137.5739898681641 259.5549011230469 137.5739898681641 C 259.4036254882813 137.5739898681641 259.2522583007813 137.6318054199219 259.1366577148438 137.7474060058594 L 258.664794921875 138.2192840576172 C 258.43408203125 138.4499969482422 258.43408203125 138.82470703125 258.664794921875 139.055419921875 L 270.9501342773438 151.3407897949219 C 270.6716003417969 151.9556732177734 270.6397094726563 152.6532897949219 270.85498046875 153.2861022949219 C 270.9795532226563 153.6528472900391 271.1868286132813 153.9986572265625 271.4803466796875 154.2916564941406 C 271.9950561523438 154.806640625 272.6698608398438 155.0641326904297 273.3447570800781 155.0641326904297 M 273.3447570800781 157.0641326904297 C 272.10595703125 157.0641326904297 270.9414672851563 156.5816345214844 270.0657653808594 155.7055206298828 C 269.5630798339844 155.2037048339844 269.1909484863281 154.6055908203125 268.9612426757813 153.9293518066406 C 268.7429809570313 153.2877044677734 268.6690368652344 152.6161041259766 268.7374267578125 151.9564971923828 L 257.2505798339844 140.4696350097656 C 256.2402648925781 139.4592742919922 256.2402648925781 137.8153686523438 257.2505798339844 136.8050689697266 L 257.7224426269531 136.3332061767578 C 258.2120361328125 135.8436126708984 258.86279296875 135.5739898681641 259.5549011230469 135.5739898681641 C 260.2478637695313 135.5739898681641 260.8990783691406 135.8441772460938 261.3885803222656 136.3347778320313 L 272.8746948242188 147.8204193115234 C 273.0337829589844 147.8040924072266 273.1944274902344 147.7958831787109 273.3562316894531 147.7958831787109 C 274.5912170410156 147.7958831787109 275.7516479492188 148.2761535644531 276.6237182617188 149.1482238769531 C 277.8828125 150.4081115722656 278.3025207519531 152.2428283691406 277.7196044921875 153.9368743896484 C 277.4833374023438 154.6204223632813 277.1149291992188 155.2147521972656 276.6236572265625 155.7059478759766 C 275.7478637695313 156.5817565917969 274.5833740234375 157.0641326904297 273.3447570800781 157.0641326904297 Z" stroke="none" fill="#fff"/>
    </g>
  </g>
</svg>
