<svg xmlns="http://www.w3.org/2000/svg" xmlns:xlink="http://www.w3.org/1999/xlink" width="216.103" height="44.262" viewBox="0 0 216.103 44.262">
  <defs>
    <linearGradient id="linear-gradient" x1="0.5" x2="0.5" y2="1" gradientUnits="objectBoundingBox">
      <stop offset="0" stop-color="#ff6464"/>
      <stop offset="0" stop-color="#f32e2e"/>
      <stop offset="1" stop-color="#f8926e"/>
    </linearGradient>
  </defs>
  <g id="Group_175" data-name="Group 175" transform="translate(-12285.897 -3379.277)">
    <g id="Layer_2" data-name="Layer 2" transform="translate(12291.309 3379.461)">
      <g id="Layer_2_copy_2" data-name="Layer 2 copy 2" transform="translate(37.625 0)">
        <path id="Path_23" data-name="Path 23" d="M417.7,142.416a4.043,4.043,0,0,0,2.1-1.8,7.057,7.057,0,0,0,.746-3.52,8.246,8.246,0,0,0-.4-2.709,4.183,4.183,0,0,0-1.186-1.822,4.872,4.872,0,0,0-1.885-1.009,9.969,9.969,0,0,0-2.743-.319H411.28v11.624q1.294.067,2.983.065A10.108,10.108,0,0,0,417.7,142.416Z" transform="translate(-356.703 -101.759)" fill="none"/>
        <path id="Path_24" data-name="Path 24" d="M223.093,133.213c-.07-.418-.133-.836-.193-1.253C222.961,132.378,223.024,132.8,223.093,133.213Z" transform="translate(-210.638 -102.319)" fill="none"/>
        <path id="Path_25" data-name="Path 25" d="M417.641,82.729a4.355,4.355,0,0,0,1.9-1.808,6.75,6.75,0,0,0,.647-3.237,5.189,5.189,0,0,0-.7-2.884,3.875,3.875,0,0,0-2-1.525,9.756,9.756,0,0,0-3.223-.449q-1.536,0-2.983.11V83.379h2.92A7.789,7.789,0,0,0,417.641,82.729Z" transform="translate(-356.703 -56.464)" fill="none"/>
        <path id="Path_26" data-name="Path 26" d="M442.787,43.531a.746.746,0,0,0,.411.7,2.823,2.823,0,0,0,1.3.225,2.352,2.352,0,0,0,1.256-.274.872.872,0,0,0,.431-.777.833.833,0,0,0-.081-.382.609.609,0,0,0-.308-.263,1.624,1.624,0,0,0-.651-.106h-1.123a6.279,6.279,0,0,1-.75-.025,1.321,1.321,0,0,0-.359.4A1.015,1.015,0,0,0,442.787,43.531Z" transform="translate(-381.132 -33.054)" fill="none"/>
        <path id="Path_27" data-name="Path 27" d="M376.923,28.342a.816.816,0,0,0,.225.622.86.86,0,0,0,.618.213,1.1,1.1,0,0,0,.573-.162,1.184,1.184,0,0,0,.427-.429,1.123,1.123,0,0,0,.159-.573V26.92a2.724,2.724,0,0,0-1.512.382A1.208,1.208,0,0,0,376.923,28.342Z" transform="translate(-330.062 -20.873)" fill="none"/>
        <path id="Path_28" data-name="Path 28" d="M868.393,77.53l-.043.031Z" transform="translate(-711.104 -60.115)" fill="none"/>
        <path id="Path_29" data-name="Path 29" d="M873.137,73.78l-.207.148Z" transform="translate(-714.655 -57.207)" fill="none"/>
        <path id="Path_30" data-name="Path 30" d="M475.563,28.342a.816.816,0,0,0,.225.622.86.86,0,0,0,.618.213,1.1,1.1,0,0,0,.573-.162,1.191,1.191,0,0,0,.429-.429,1.139,1.139,0,0,0,.157-.573V26.92a2.717,2.717,0,0,0-1.512.382A1.209,1.209,0,0,0,475.563,28.342Z" transform="translate(-406.545 -20.873)" fill="none"/>
        <path id="Path_31" data-name="Path 31" d="M881.972,67.29l-.182.137Z" transform="translate(-721.525 -52.175)" fill="none"/>
        <path id="Path_32" data-name="Path 32" d="M446.943,17.41a.775.775,0,0,0,.694-.375,2.165,2.165,0,0,0,.24-1.146,2.619,2.619,0,0,0-.225-1.233.764.764,0,0,0-.714-.425.788.788,0,0,0-.735.377,2.275,2.275,0,0,0-.225,1.161,2.556,2.556,0,0,0,.225,1.235A.788.788,0,0,0,446.943,17.41Z" transform="translate(-383.603 -11.033)" fill="none"/>
        <path id="Path_33" data-name="Path 33" d="M877.509,70.48l-.249.184Z" transform="translate(-718.012 -54.648)" fill="none"/>
        <path id="Path_34" data-name="Path 34" d="M222.177,11.57l-.957.027v.449a1.817,1.817,0,0,1,.364.11.523.523,0,0,1,.225.18.759.759,0,0,1,.112.317c0,.058.016.128.02.2a.191.191,0,0,1,.016-.092Q222.069,12.168,222.177,11.57Z" transform="translate(-209.335 -8.971)" fill="url(#linear-gradient)"/>
        <path id="Path_35" data-name="Path 35" d="M180.513,1.712a.622.622,0,0,1,.175-.308,1.22,1.22,0,0,1,.474-.213V.76h-3.086L176.1,6.151,174.277.76H171V1.2a1.26,1.26,0,0,1,.494.225.6.6,0,0,1,.18.292,3.729,3.729,0,0,1,.043.685V8.1a4.328,4.328,0,0,1-.018.519.858.858,0,0,1-.088.337.53.53,0,0,1-.213.209,1.8,1.8,0,0,1-.386.146v.434H173.5V9.309a1.166,1.166,0,0,1-.481-.211.6.6,0,0,1-.184-.317,3.243,3.243,0,0,1-.047-.674V5.082q0-1.48-.065-2.567h.119c.083.3.18.6.288.9l1.858,5.337h1.157L177.907,4c.164-.436.274-.737.332-.9s.117-.341.168-.517h.139c-.013.2-.027.544-.04,1.027s-.02.9-.02,1.256V8.085a4.768,4.768,0,0,1-.029.642.73.73,0,0,1-.092.288.436.436,0,0,1-.175.155,2.17,2.17,0,0,1-.4.139v.434h3.369V9.309a1.2,1.2,0,0,1-.5-.225.629.629,0,0,1-.159-.357,3.879,3.879,0,0,1-.04-.633V2.406a3.183,3.183,0,0,1,.052-.694Z" transform="translate(-170.396 -0.589)" fill="url(#linear-gradient)"/>
        <path id="Path_36" data-name="Path 36" d="M224.67,0V1.613h.373c.056-.279.117-.555.175-.833.045-.209.092-.42.139-.629.011-.049.02-.1.031-.15Z" transform="translate(-212.01 0)" fill="url(#linear-gradient)"/>
        <path id="Path_37" data-name="Path 37" d="M179.827,89.871a4.04,4.04,0,0,1-1.624-.7,1.99,1.99,0,0,1-.593-1.053,11.772,11.772,0,0,1-.153-2.3V78.75h1.271a4.658,4.658,0,0,1,1.8.263,2.4,2.4,0,0,1,.375.225.959.959,0,0,0-.029-.173c-.031-.191-.065-.382-.1-.573-.07-.418-.133-.836-.193-1.253-.029-.2-.061-.4-.088-.606-.022-.157-.047-.314-.067-.469-.254.016-.514.027-.788.027H177.45V63.99c.371-.027,1.123-.043,2.266-.045.016-.856.047-1.712.09-2.565h-11.5v1.447a5.42,5.42,0,0,1,1.305.494,1.763,1.763,0,0,1,.7.712,2.936,2.936,0,0,1,.285,1.141c.036.469.056,1.047.056,1.734V85.817q0,1.051-.067,1.743a3.122,3.122,0,0,1-.3,1.141,1.613,1.613,0,0,1-.7.7,6.253,6.253,0,0,1-1.283.472v1.449h11.517Z" transform="translate(-168.31 -47.593)" fill="url(#linear-gradient)"/>
        <rect id="Rectangle_191" data-name="Rectangle 191" width="1.804" height="1.613" transform="translate(29.271 0)" fill="url(#linear-gradient)"/>
        <path id="Path_38" data-name="Path 38" d="M220.162,78.486c.031.191.065.382.1.573.011.058.02.117.031.175a3.657,3.657,0,0,1,.753.744,12.842,12.842,0,0,1,1.316,2.37l1.712,3.751a32.684,32.684,0,0,0,2.873,5.22h8.446V89.87a3.731,3.731,0,0,1-2.161-1.217,11.918,11.918,0,0,1-1.831-2.994l-1.384-2.983a12.161,12.161,0,0,0-1.918-2.963,7.7,7.7,0,0,0-2.7-1.876v-.225a14.582,14.582,0,0,0,3.432-1.918,7.393,7.393,0,0,0,2.04-2.556,8.246,8.246,0,0,0,.757-3.684,8.907,8.907,0,0,0-.407-2.891,6.72,6.72,0,0,0-1.217-2.17,6.591,6.591,0,0,0-1.932-1.548,11.085,11.085,0,0,0-3.181-1.1,22.725,22.725,0,0,0-4.4-.362h-1.283c-.043.854-.076,1.709-.092,2.565h.211a5.458,5.458,0,0,1,4.169,1.492,6.318,6.318,0,0,1,1.4,4.477,11.724,11.724,0,0,1-.252,2.5,4.834,4.834,0,0,1-.923,1.986,4.4,4.4,0,0,1-1.8,1.316,6.783,6.783,0,0,1-2.1.449c.022.155.04.312.063.469.027.2.058.4.088.606C220.03,77.651,220.093,78.068,220.162,78.486Z" transform="translate(-207.707 -47.591)" fill="url(#linear-gradient)"/>
        <path id="Path_39" data-name="Path 39" d="M372.9,153.71v3.7q0,1.051-.065,1.743a3.213,3.213,0,0,1-.3,1.141,1.624,1.624,0,0,1-.7.7,6.29,6.29,0,0,1-1.285.472v1.449h9.926A81.618,81.618,0,0,1,372.9,153.71Z" transform="translate(-325.122 -119.183)" fill="url(#linear-gradient)"/>
        <path id="Path_40" data-name="Path 40" d="M317.241,34.693c-.067-.245-.133-.487-.2-.732a1.419,1.419,0,0,1-.485.076,1.334,1.334,0,0,1-.914-.3,1.745,1.745,0,0,1-.5-.9h-.883v1.572a10.733,10.733,0,0,0,2.413.31A5.062,5.062,0,0,0,317.241,34.693Z" transform="translate(-281.476 -25.463)" fill="url(#linear-gradient)"/>
        <path id="Path_41" data-name="Path 41" d="M315.22,12.892a1.611,1.611,0,0,0-.341,1.027,1.541,1.541,0,0,0,.137.658,1.936,1.936,0,0,0,.375.535,2.7,2.7,0,0,0,.557.429,5.693,5.693,0,0,0,.674.348c.157.07.29.13.413.191q-.465-1.916-.833-3.859h-.011a2.134,2.134,0,0,0-.97.672Z" transform="translate(-281.955 -9.475)" fill="url(#linear-gradient)"/>
        <path id="Path_42" data-name="Path 42" d="M309.795,65.934q-.923-2.246-1.714-4.564H300.63v1.447a5.769,5.769,0,0,1,1.305.492,1.7,1.7,0,0,1,.7.714,3.045,3.045,0,0,1,.285,1.123q.054.674.054,1.734V85.811q0,1.051-.065,1.743a3.214,3.214,0,0,1-.3,1.141,1.617,1.617,0,0,1-.7.7,6.2,6.2,0,0,1-1.283.472v1.449h11.517V89.868a5.435,5.435,0,0,1-1.074-.362,2.1,2.1,0,0,1-.692-.494,1.884,1.884,0,0,1-.384-.7,4.7,4.7,0,0,1-.175-1.076q-.043-.656-.045-1.424V66.9C309.777,66.539,309.783,66.229,309.795,65.934Z" transform="translate(-270.908 -47.585)" fill="url(#linear-gradient)"/>
        <path id="Path_43" data-name="Path 43" d="M271.363,17.834a2.455,2.455,0,0,0,.851-.377,1.7,1.7,0,0,0,.553-.633,1.985,1.985,0,0,0,.2-.919,1.714,1.714,0,0,0-.2-.854,2,2,0,0,0-.591-.645,5.066,5.066,0,0,0-1.009-.535,5.35,5.35,0,0,1-.914-.449,1.018,1.018,0,0,1-.328-.346.9.9,0,0,1-.092-.427.654.654,0,0,1,.256-.553,1.1,1.1,0,0,1,.692-.2,1.386,1.386,0,0,1,.519.088,1.022,1.022,0,0,1,.409.321,2.358,2.358,0,0,1,.332.651h.869V11.428c-.487-.088-.885-.146-1.191-.171s-.622-.04-.941-.04a4.194,4.194,0,0,0-1.451.225,2.109,2.109,0,0,0-.977.674A1.6,1.6,0,0,0,268,13.141a1.543,1.543,0,0,0,.139.658,1.889,1.889,0,0,0,.375.535,2.7,2.7,0,0,0,.544.427,5.558,5.558,0,0,0,.674.348,6.818,6.818,0,0,1,.91.449,1.2,1.2,0,0,1,.382.366.876.876,0,0,1,.117.46.827.827,0,0,1-.254.651,1.1,1.1,0,0,1-.748.225,1.348,1.348,0,0,1-.907-.29,1.745,1.745,0,0,1-.5-.9h-.881v1.572a10.715,10.715,0,0,0,2.415.31,4.627,4.627,0,0,0,1.1-.121Z" transform="translate(-245.491 -8.696)" fill="url(#linear-gradient)"/>
        <path id="Path_44" data-name="Path 44" d="M226.35,1.613h1.426V0h-1.083l-.034.15c-.047.209-.094.42-.139.629C226.462,1.056,226.406,1.334,226.35,1.613Z" transform="translate(-213.313 0)" fill="url(#linear-gradient)"/>
        <path id="Path_45" data-name="Path 45" d="M224.751,17.606a1.429,1.429,0,0,1-.3-.106.512.512,0,0,1-.171-.133.631.631,0,0,1-.1-.157.9.9,0,0,1-.056-.193,2.555,2.555,0,0,1-.029-.31V11.46h-.824l-.851.025q-.115.6-.225,1.193a.659.659,0,0,1-.016.092v3.374a5.612,5.612,0,0,1-.043.863.77.77,0,0,1-.164.375.917.917,0,0,1-.449.225v.434h3.212Z" transform="translate(-209.575 -8.886)" fill="url(#linear-gradient)"/>
        <path id="Path_46" data-name="Path 46" d="M243.811,17.834a2.455,2.455,0,0,0,.84-.377,1.7,1.7,0,0,0,.553-.633,1.986,1.986,0,0,0,.2-.919,1.714,1.714,0,0,0-.2-.854,2,2,0,0,0-.591-.645,5.065,5.065,0,0,0-1.009-.535,5.441,5.441,0,0,1-.914-.449,1.018,1.018,0,0,1-.328-.346.9.9,0,0,1-.092-.427.654.654,0,0,1,.256-.553,1.1,1.1,0,0,1,.692-.2,1.386,1.386,0,0,1,.519.088.99.99,0,0,1,.4.319,2.358,2.358,0,0,1,.332.651h.869v-1.53c-.487-.088-.885-.146-1.191-.171s-.622-.04-.941-.04a4.2,4.2,0,0,0-1.451.225,2.109,2.109,0,0,0-.977.674,1.6,1.6,0,0,0-.344,1.027,1.543,1.543,0,0,0,.139.658,1.936,1.936,0,0,0,.375.535,2.7,2.7,0,0,0,.555.427,5.557,5.557,0,0,0,.674.348,6.818,6.818,0,0,1,.91.449,1.177,1.177,0,0,1,.382.366.876.876,0,0,1,.117.46.827.827,0,0,1-.254.651,1.1,1.1,0,0,1-.748.225,1.348,1.348,0,0,1-.914-.3,1.761,1.761,0,0,1-.5-.9h-.881v1.572a10.715,10.715,0,0,0,2.415.31A4.627,4.627,0,0,0,243.811,17.834Z" transform="translate(-224.114 -8.696)" fill="url(#linear-gradient)"/>
        <path id="Path_47" data-name="Path 47" d="M295.764,12.255a.73.73,0,0,1,.112.317,3.554,3.554,0,0,1,.029.519v3.053a5.616,5.616,0,0,1-.043.863.75.75,0,0,1-.164.375.9.9,0,0,1-.449.225v.434h3.212v-.434a1.429,1.429,0,0,1-.3-.106.544.544,0,0,1-.265-.29.9.9,0,0,1-.056-.193,2.473,2.473,0,0,1-.031-.31V11.46h-.822l-1.81.052v.449a1.8,1.8,0,0,1,.366.11.505.505,0,0,1,.218.184Z" transform="translate(-266.682 -8.886)" fill="url(#linear-gradient)"/>
        <path id="Path_48" data-name="Path 48" d="M860.765,62.7l-.182.137-.768.58-.249.184-.766.557-.207.148c-.326.225-.656.465-.986.694l-.043.031-.469.319V85.807q0,1.051-.067,1.766a2.872,2.872,0,0,1-.328,1.173,1.739,1.739,0,0,1-.8.714,5.672,5.672,0,0,1-1.458.4v1.449h12.11V89.864a5.04,5.04,0,0,1-1.218-.3,2.4,2.4,0,0,1-.7-.416,1.875,1.875,0,0,1-.427-.6,3.067,3.067,0,0,1-.243-.975q-.065-.6-.065-1.766V63.935h1.572a8.76,8.76,0,0,1,1.458.1,3.252,3.252,0,0,1,.932.3,2.955,2.955,0,0,1,.7.528,4.144,4.144,0,0,1,.624.822,6.354,6.354,0,0,1,.539,1.2q.24.7.658,2.195h3v-7.7h-10.93Q861.623,62.044,860.765,62.7Z" transform="translate(-700.318 -47.585)" fill="url(#linear-gradient)"/>
        <path id="Path_49" data-name="Path 49" d="M344.091,17.27a1.334,1.334,0,0,1-.9-.3,1.745,1.745,0,0,1-.5-.9H341.8v1.572a10.731,10.731,0,0,0,2.415.31,4.614,4.614,0,0,0,1.1-.121,2.47,2.47,0,0,0,.854-.373,1.745,1.745,0,0,0,.553-.633,2.021,2.021,0,0,0,.2-.919,1.739,1.739,0,0,0-.2-.854,2.022,2.022,0,0,0-.6-.645,5.039,5.039,0,0,0-1.006-.535,5.351,5.351,0,0,1-.914-.449,1.026,1.026,0,0,1-.326-.348.927.927,0,0,1-.092-.427.654.654,0,0,1,.256-.553,1.105,1.105,0,0,1,.692-.2,1.377,1.377,0,0,1,.519.088,1.011,1.011,0,0,1,.4.319,2.422,2.422,0,0,1,.332.651h.867V11.428c-.485-.088-.883-.146-1.191-.171s-.62-.04-.941-.04a4.212,4.212,0,0,0-1.451.225,2.134,2.134,0,0,0-.977.674,1.611,1.611,0,0,0-.341,1.027,1.541,1.541,0,0,0,.137.658,1.936,1.936,0,0,0,.375.535,2.7,2.7,0,0,0,.557.427,5.693,5.693,0,0,0,.674.348,6.738,6.738,0,0,1,.912.449,1.2,1.2,0,0,1,.382.366.876.876,0,0,1,.115.46.827.827,0,0,1-.254.651A1.1,1.1,0,0,1,344.091,17.27Z" transform="translate(-302.83 -8.696)" fill="url(#linear-gradient)"/>
        <path id="Path_50" data-name="Path 50" d="M323.711,17.458a1.745,1.745,0,0,0,.553-.633,2.022,2.022,0,0,0,.2-.919,1.739,1.739,0,0,0-.2-.854,2.021,2.021,0,0,0-.593-.645,4.977,4.977,0,0,0-1.006-.53,5.35,5.35,0,0,1-.914-.449,1.026,1.026,0,0,1-.33-.346.928.928,0,0,1-.092-.427.651.651,0,0,1,.258-.553,1.094,1.094,0,0,1,.69-.2,1.4,1.4,0,0,1,.521.088,1.022,1.022,0,0,1,.4.319,2.359,2.359,0,0,1,.332.651h.869V11.429c-.487-.088-.885-.146-1.193-.171s-.62-.04-.941-.04a4.239,4.239,0,0,0-1.435.225c.247,1.294.521,2.581.831,3.859a4.681,4.681,0,0,1,.5.267,1.2,1.2,0,0,1,.382.366.876.876,0,0,1,.115.46.82.82,0,0,1-.254.651.77.77,0,0,1-.261.146c.065.245.137.487.2.732a4.523,4.523,0,0,0,.523-.092A2.471,2.471,0,0,0,323.711,17.458Z" transform="translate(-286.562 -8.698)" fill="url(#linear-gradient)"/>
        <path id="Path_51" data-name="Path 51" d="M372.248,11.22h0a4.718,4.718,0,0,0-.618.04,5.734,5.734,0,0,0-.7.135,7.4,7.4,0,0,0-.793.24q-.4.144-1.009.413v1.2h1.233a2.366,2.366,0,0,1,.263-.811,1,1,0,0,1,.411-.4,1.2,1.2,0,0,1,.521-.106.975.975,0,0,1,.521.137.961.961,0,0,1,.355.467,2.53,2.53,0,0,1,.139.943V14.1a6.891,6.891,0,0,0-2.886.7,1.724,1.724,0,0,0-.957,1.534,1.644,1.644,0,0,0,.213.849,1.449,1.449,0,0,0,.631.577,2.206,2.206,0,0,0,.984.207,2.545,2.545,0,0,0,1.083-.225,3.944,3.944,0,0,0,1.049-.764l.1.031-.058.863h2.448V17.42a2.507,2.507,0,0,1-.359-.11.514.514,0,0,1-.162-.11.576.576,0,0,1-.108-.184,1.409,1.409,0,0,1-.063-.353q-.02-.236-.02-.674v-2.2Q373.333,12.532,372.248,11.22Zm.323,4.621a1.123,1.123,0,0,1-.16.573,1.184,1.184,0,0,1-.427.429,1.1,1.1,0,0,1-.573.162.86.86,0,0,1-.618-.213.815.815,0,0,1-.225-.622,1.208,1.208,0,0,1,.49-1.04,2.749,2.749,0,0,1,1.512-.382Z" transform="translate(-323.709 -8.7)" fill="url(#linear-gradient)"/>
        <path id="Path_52" data-name="Path 52" d="M629.331,146.158a9.526,9.526,0,0,1-.624,1.274,5.87,5.87,0,0,1-.674.9,3.444,3.444,0,0,1-.8.658,2.894,2.894,0,0,1-.941.339,7.06,7.06,0,0,1-1.3.1h-4.767v-9.3q-3.416-.106-6.8-.5v6.858q0,1.051-.065,1.743a3.215,3.215,0,0,1-.3,1.141,1.629,1.629,0,0,1-.7.7,6.2,6.2,0,0,1-1.283.472v1.449h21.564l.416-8.012h-3.005A20.227,20.227,0,0,1,629.331,146.158Z" transform="translate(-511.623 -108.266)" fill="url(#linear-gradient)"/>
        <path id="Path_53" data-name="Path 53" d="M734.652,136.7a13.44,13.44,0,0,0,5.528-1.065,8,8,0,0,0,3.641-3.048,8.594,8.594,0,0,0,1.251-4.683,8.727,8.727,0,0,0-.735-3.7,8.88,8.88,0,0,0-2.282-2.94,18.143,18.143,0,0,0-2.563-1.813,80.877,80.877,0,0,1-8.76,2.7,29.154,29.154,0,0,0,2.673,1.507,18.125,18.125,0,0,1,3.116,1.909,5.912,5.912,0,0,1,1.624,1.9,5.166,5.166,0,0,1,.5,2.356,4.436,4.436,0,0,1-.624,2.446,3.594,3.594,0,0,1-1.655,1.415,5.892,5.892,0,0,1-2.325.449,5.113,5.113,0,0,1-3.763-1.285,7.532,7.532,0,0,1-1.833-3.893H725.44v6.757a38.783,38.783,0,0,0,4.551.735A45.6,45.6,0,0,0,734.652,136.7Z" transform="translate(-600.295 -92.626)" fill="url(#linear-gradient)"/>
        <path id="Path_54" data-name="Path 54" d="M509.977,111.769v-.337q-3.459-1.231-6.8-2.772v13.785c0,.7-.022,1.287-.067,1.754a3.144,3.144,0,0,1-.3,1.152,1.685,1.685,0,0,1-.7.712,5.2,5.2,0,0,1-1.283.46v1.449h11.8v-1.449a5.1,5.1,0,0,1-1.217-.3,2.414,2.414,0,0,1-.7-.416,1.875,1.875,0,0,1-.427-.6,3.066,3.066,0,0,1-.243-.975q-.065-.6-.065-1.766v-8.131h2.808a3.235,3.235,0,0,1,1.557.305,2.355,2.355,0,0,1,.921,1.065,8.743,8.743,0,0,1,.638,2.138h2.471V113.93q-3.78-.9-7.455-2.161Z" transform="translate(-426.138 -84.252)" fill="url(#linear-gradient)"/>
        <path id="Path_55" data-name="Path 55" d="M404.157,33.822a1.453,1.453,0,0,0,.6.764,2.1,2.1,0,0,0,1.094.261Q404.9,33.941,404,33A3.212,3.212,0,0,0,404.157,33.822Z" transform="translate(-351.058 -25.587)" fill="url(#linear-gradient)"/>
        <path id="Path_56" data-name="Path 56" d="M335.591,65.034A2.965,2.965,0,0,1,335.9,64a1.858,1.858,0,0,1,.647-.674,4.923,4.923,0,0,1,1.328-.517V61.37H333.81q.788,2.3,1.712,4.551C335.537,65.566,335.56,65.267,335.591,65.034Z" transform="translate(-296.635 -47.585)" fill="url(#linear-gradient)"/>
        <path id="Path_57" data-name="Path 57" d="M677.785,141.955h2.471V141q-1.348.1-2.7.157C677.641,141.4,677.715,141.674,677.785,141.955Z" transform="translate(-563.17 -109.328)" fill="url(#linear-gradient)"/>
        <path id="Path_58" data-name="Path 58" d="M380.485,91.281h3.578a22.826,22.826,0,0,0,5.166-.483,10.283,10.283,0,0,0,3.531-1.525,6.4,6.4,0,0,0,2.246-2.664,9.189,9.189,0,0,0,.735-3.819,6.422,6.422,0,0,0-1.613-4.4,10.094,10.094,0,0,0-4.683-2.8v-.186q5.658-2.361,5.939-6.963a81.007,81.007,0,0,1-10.333-7.114h-14.5v1.447a5.392,5.392,0,0,1,1.305.494,1.784,1.784,0,0,1,.7.712,3.017,3.017,0,0,1,.285,1.141q.054.712.054,1.748V82.079A81.481,81.481,0,0,0,380.485,91.281ZM379.7,64.014q1.447-.108,2.983-.11a9.755,9.755,0,0,1,3.223.449,3.875,3.875,0,0,1,2,1.525,5.189,5.189,0,0,1,.7,2.884A6.758,6.758,0,0,1,387.956,72a4.355,4.355,0,0,1-1.9,1.808,7.734,7.734,0,0,1-3.446.638h-2.92Zm0,13.008h3.048a9.969,9.969,0,0,1,2.743.319,4.872,4.872,0,0,1,1.885,1.009,4.182,4.182,0,0,1,1.186,1.822,8.247,8.247,0,0,1,.4,2.709,6.986,6.986,0,0,1-.746,3.52,4.043,4.043,0,0,1-2.1,1.8,9.671,9.671,0,0,1-3.432.514q-1.691,0-2.983-.065Z" transform="translate(-325.122 -47.554)" fill="url(#linear-gradient)"/>
        <path id="Path_59" data-name="Path 59" d="M385.642,11.424a3.214,3.214,0,0,0-1.262-.211q1.085,1.31,2.213,2.565V13.41a2.981,2.981,0,0,0-.225-1.31,1.406,1.406,0,0,0-.726-.676Z" transform="translate(-335.845 -8.693)" fill="url(#linear-gradient)"/>
        <path id="Path_60" data-name="Path 60" d="M470.538,16.479c-.469-.094-.939-.2-1.408-.3v.912h1.242a2.856,2.856,0,0,1,.166-.613Z" transform="translate(-401.558 -12.546)" fill="url(#linear-gradient)"/>
        <path id="Path_61" data-name="Path 61" d="M404.518,18.1a4.507,4.507,0,0,0,1.092-.788l.079.02-.058.943h.8l1.8-.061v-.449a1.348,1.348,0,0,1-.449-.155.5.5,0,0,1-.191-.225,1.148,1.148,0,0,1-.076-.368c-.011-.153-.016-.4-.016-.73v-4.6h-2.565v.434a1.323,1.323,0,0,1,.389.168.539.539,0,0,1,.175.225,1.212,1.212,0,0,1,.074.366q.02.225.02.714v2.538a1.024,1.024,0,0,1-.186.584,1.373,1.373,0,0,1-.449.425,1.047,1.047,0,0,1-.512.15.811.811,0,0,1-.413-.094.784.784,0,0,1-.272-.3,1.545,1.545,0,0,1-.15-.564,9.234,9.234,0,0,1-.04-.986V11.69H401v.434a1.4,1.4,0,0,1,.294.106.624.624,0,0,1,.171.133.588.588,0,0,1,.1.162.952.952,0,0,1,.056.2,2.568,2.568,0,0,1,.029.308V16a3.508,3.508,0,0,0,.02.469q.919.943,1.867,1.853h.016a2.264,2.264,0,0,0,.966-.225Z" transform="translate(-348.732 -9.064)" fill="url(#linear-gradient)"/>
        <path id="Path_62" data-name="Path 62" d="M471.206,19.642v.624a6.9,6.9,0,0,0-2.886.7,1.7,1.7,0,0,0-.95,1.534,1.667,1.667,0,0,0,.213.849,1.462,1.462,0,0,0,.631.577,2.206,2.206,0,0,0,.984.207,2.545,2.545,0,0,0,1.083-.225,3.954,3.954,0,0,0,1.051-.764l.1.031-.058.863h2.448v-.456a2.611,2.611,0,0,1-.359-.11.48.48,0,0,1-.159-.11.54.54,0,0,1-.11-.184,1.411,1.411,0,0,1-.063-.353c-.013-.157-.018-.382-.018-.674V19.487c-.642-.1-1.283-.2-1.925-.317A4.045,4.045,0,0,1,471.206,19.642Zm0,2.363a1.14,1.14,0,0,1-.157.573,1.191,1.191,0,0,1-.429.429,1.1,1.1,0,0,1-.573.162.86.86,0,0,1-.618-.213.815.815,0,0,1-.225-.622,1.209,1.209,0,0,1,.49-1.04,2.749,2.749,0,0,1,1.512-.382Z" transform="translate(-400.193 -14.864)" fill="url(#linear-gradient)"/>
        <path id="Path_63" data-name="Path 63" d="M437.174,11.737a1.928,1.928,0,0,0-.6.714,2.3,2.3,0,0,0-.225,1.051,2.194,2.194,0,0,0,.265,1.1,1.974,1.974,0,0,0,.775.761,5.022,5.022,0,0,0-.555.483,1.8,1.8,0,0,0-.344.49,1.334,1.334,0,0,0-.128.58,1.437,1.437,0,0,0,.126.631,1.213,1.213,0,0,0,.4.449,1.934,1.934,0,0,0-.674.541,1.123,1.123,0,0,0-.218.7,1.229,1.229,0,0,0,.225.77,1.545,1.545,0,0,0,.674.467,3.783,3.783,0,0,0,1.033.24,12.248,12.248,0,0,0,1.348.067,5.23,5.23,0,0,0,1.763-.267,2.471,2.471,0,0,0,1.143-.773,1.905,1.905,0,0,0,.4-1.211,1.591,1.591,0,0,0-.546-1.33,2.667,2.667,0,0,0-1.658-.436h-1.631a2.224,2.224,0,0,1-.559-.054.541.541,0,0,1-.281-.162.488.488,0,0,1-.081-.3.856.856,0,0,1,.328-.638,3.985,3.985,0,0,0,1.067.119,3.067,3.067,0,0,0,2.042-.593,2.16,2.16,0,0,0,.694-1.739,2.17,2.17,0,0,0-.121-.768,1.4,1.4,0,0,0-.305-.5l.027-.072,1.123.126v-.047q-1.833-.425-3.657-.937a4.623,4.623,0,0,0-.941.124A2.6,2.6,0,0,0,437.174,11.737ZM438,18.251c.18.016.429.025.75.025h1.123a1.624,1.624,0,0,1,.651.106.609.609,0,0,1,.308.263.834.834,0,0,1,.081.382.872.872,0,0,1-.427.786,2.352,2.352,0,0,1-1.26.276,2.824,2.824,0,0,1-1.3-.225.746.746,0,0,1-.411-.7,1.016,1.016,0,0,1,.121-.5,1.321,1.321,0,0,1,.364-.4Zm.465-5.991a.788.788,0,0,1,.721-.377.764.764,0,0,1,.714.425,2.619,2.619,0,0,1,.225,1.233,2.165,2.165,0,0,1-.24,1.146.775.775,0,0,1-.694.375.789.789,0,0,1-.735-.4,2.557,2.557,0,0,1-.225-1.235,2.276,2.276,0,0,1,.234-1.161Z" transform="translate(-375.865 -8.684)" fill="url(#linear-gradient)"/>
        <path id="Path_64" data-name="Path 64" d="M550.8,107a8.374,8.374,0,0,1-.6,2.107,2.341,2.341,0,0,1-.921,1.062,3.239,3.239,0,0,1-1.59.319H545.84q3.666,1.253,7.437,2.159V107Z" transform="translate(-461.037 -82.965)" fill="url(#linear-gradient)"/>
        <path id="Path_65" data-name="Path 65" d="M628.718,71.307h-2.471a8.14,8.14,0,0,1-.692,1.974,2.189,2.189,0,0,1-.91.9,3.448,3.448,0,0,1-1.514.274h-2.9V63.935h4.782a4.872,4.872,0,0,1,2.392.429,3.975,3.975,0,0,1,1.206,1.161,13.555,13.555,0,0,1,1.229,2.819h3.014V61.37H611.08v1.447a5.421,5.421,0,0,1,1.305.494,1.783,1.783,0,0,1,.7.712,2.978,2.978,0,0,1,.283,1.141q.058.7.056,1.734V78.942q3.369.391,6.8.5v-2.41h2.9a3.309,3.309,0,0,1,1.548.285,2.361,2.361,0,0,1,.887.955,5.989,5.989,0,0,1,.461,1.139q1.348-.058,2.7-.157Z" transform="translate(-511.623 -47.585)" fill="url(#linear-gradient)"/>
        <path id="Path_66" data-name="Path 66" d="M738.524,59.809a16.278,16.278,0,0,0-5.867.975,8.191,8.191,0,0,0-3.872,2.864,7.668,7.668,0,0,0-1.348,4.585,7.751,7.751,0,0,0,.537,2.961,8.476,8.476,0,0,0,1.514,2.424,11.86,11.86,0,0,0,2.356,2.022c.135.09.279.18.418.267a80.689,80.689,0,0,0,8.76-2.7c-.519-.31-1.076-.622-1.682-.939a23.362,23.362,0,0,1-3.369-2.022,5.841,5.841,0,0,1-1.656-1.819,4.665,4.665,0,0,1-.494-2.206,3.74,3.74,0,0,1,.58-2.1,3.567,3.567,0,0,1,1.559-1.305,6.157,6.157,0,0,1,4.672.045,4.068,4.068,0,0,1,1.613,1.5,9.228,9.228,0,0,1,1.062,2.752h3.005V60.751a38.13,38.13,0,0,0-4.059-.735,31.932,31.932,0,0,0-3.729-.207Z" transform="translate(-601.842 -46.375)" fill="url(#linear-gradient)"/>
        <path id="Path_67" data-name="Path 67" d="M833.9,65c.33-.225.66-.449.986-.694l.207-.148.766-.557.249-.184.768-.58.182-.137q.856-.656,1.689-1.33H823.87v7.7h3.005q.243-.988.615-2.1a5.876,5.876,0,0,1,.9-1.766,3.125,3.125,0,0,1,1.218-.966,5.22,5.22,0,0,1,2.022-.308h1.777V65.35l.469-.319Z" transform="translate(-676.615 -47.585)" fill="url(#linear-gradient)"/>
        <path id="Path_68" data-name="Path 68" d="M516.592,64.364a3.976,3.976,0,0,1,1.206,1.161,13.4,13.4,0,0,1,1.229,2.819h3.005V61.37h-21.2v1.447a5.42,5.42,0,0,1,1.305.494,1.763,1.763,0,0,1,.7.712,2.977,2.977,0,0,1,.279,1.141c.036.469.056,1.047.056,1.734V72q3.336,1.539,6.8,2.77V63.935h4.241A4.794,4.794,0,0,1,516.592,64.364Z" transform="translate(-426.138 -47.585)" fill="url(#linear-gradient)"/>
        <path id="Path_69" data-name="Path 69" d="M442.575,62.746A11.324,11.324,0,0,0,439,61.605a26.909,26.909,0,0,0-3.879-.24,80.924,80.924,0,0,0,10.333,7.109c.011-.159.02-.321.02-.485a6.29,6.29,0,0,0-.768-3.181,5.265,5.265,0,0,0-2.13-2.062Z" transform="translate(-375.188 -47.58)" fill="url(#linear-gradient)"/>
        <path id="Path_70" data-name="Path 70" d="M469.13,12.318c.469.1.941.2,1.411.3a1.266,1.266,0,0,1,.1-.191.982.982,0,0,1,.4-.4,1.208,1.208,0,0,1,.523-.106.961.961,0,0,1,.519.137.948.948,0,0,1,.355.467,1.752,1.752,0,0,1,.112.472q.961.171,1.925.317a2.844,2.844,0,0,0-.225-1.206,1.406,1.406,0,0,0-.714-.685,3.172,3.172,0,0,0-1.274-.211,4.78,4.78,0,0,0-.618.04,5.732,5.732,0,0,0-.7.135,7.559,7.559,0,0,0-.793.24c-.267.1-.6.225-1.006.413Z" transform="translate(-401.558 -8.691)" fill="url(#linear-gradient)"/>
        <path id="Path_71" data-name="Path 71" d="M450.371,11.253a4.587,4.587,0,0,0-.591-.034h-.171q1.815.512,3.639.932v-.831h-2.388Z" transform="translate(-386.423 -8.699)" fill="url(#linear-gradient)"/>
      </g>
    </g>
    <g id="Group_173" data-name="Group 173" transform="translate(-71 4)">
      <path id="Path_111" data-name="Path 111" d="M3,95.455c.7-3.026,2.095-5.818,3.026-8.844a12.348,12.348,0,0,1,1.862-3.956,7.138,7.138,0,0,1,3.258-2.095,2.064,2.064,0,0,0-1.4,2.327c.465,2.56.931,5.12,2.56,7.215.233.465.233.931.465,1.4,3.026,4.189,6.284,8.378,11.4,9.077a8.724,8.724,0,0,0,6.284-1.4c-5.12,3.956-11.4,6.982-17.921,6.517C8.12,104.066,3,100.575,3,95.455Z" transform="translate(12354.596 3313.336)" fill="#ef4b60"/>
      <path id="Path_112" data-name="Path 112" d="M41.844,107.851C36.957,103.895,33.233,97.844,33,91.56c.465,3.258,3.491,4.887,6.051,6.284a35.282,35.282,0,0,0,7.448,2.793c2.793.465,5.12,1.629,7.913,1.164a9.753,9.753,0,0,0,3.491-.931,5.087,5.087,0,0,1,1.164-.7,6.32,6.32,0,0,0,1.862-3.956A7.522,7.522,0,0,1,60,102.5a19.3,19.3,0,0,1-12.1,7.215,6.25,6.25,0,0,1-5.353-1.629A.854.854,0,0,0,41.844,107.851Z" transform="translate(12331.578 3304.896)" fill="#f26c6a"/>
      <path id="Path_113" data-name="Path 113" d="M58.783,75.411c-4.422.233-8.611-1.4-12.8-3.026-1.629-.7-3.026-1.629-4.422-2.327-.931-.7-1.629-1.629-2.56-2.327a9.765,9.765,0,0,0,4.422,2.095A47.545,47.545,0,0,0,58.55,68.662a5.549,5.549,0,0,0,2.56-1.4c2.56-3.026.931-7.447-.465-10.706A9.964,9.964,0,0,1,63.9,60.284a23.166,23.166,0,0,1,1.862,8.844c0,1.629-.931,2.793-1.629,4.189-.233.233-.465,0-.7.233C62.274,74.946,60.412,74.946,58.783,75.411Z" transform="translate(12326.975 3331.75)" fill="#f68c6f"/>
      <path id="Path_114" data-name="Path 114" d="M75.317,41.015a4.687,4.687,0,0,1-3.724,2.56C66.241,44.739,61.12,45.437,56,44.506a15.25,15.25,0,0,0,3.258,0,17.769,17.769,0,0,0,8.611-4.887,4.835,4.835,0,0,0,1.164-2.793c-.465-5.818-5.353-9.309-9.077-13.266,3.026.233,5.586,1.4,8.379,2.56.931.465,1.862,1.164,2.793,1.629a11.657,11.657,0,0,1,1.629,1.862A13.461,13.461,0,0,1,75.317,41.015Z" transform="translate(12313.932 3357.07)" fill="#fbb161"/>
      <path id="Path_115" data-name="Path 115" d="M56.826,16.787c1.4,2.095,2.327,4.887.7,7.215a3.1,3.1,0,0,1-1.164,1.4,24.42,24.42,0,0,1-6.517,3.258A5.077,5.077,0,0,0,53.335,24.7a5.784,5.784,0,0,0-1.629-4.655c-2.095-2.095-4.422-3.491-6.517-5.818a12.528,12.528,0,0,1-2.095-2.793,23.631,23.631,0,0,1-1.4-5.818l-.7-1.4c2.095-.7,4.655-.7,6.051,1.629S50.775,9.8,52.87,11.667C54.266,13.3,56.128,14.692,56.826,16.787Z" transform="translate(12325.439 3372.221)" fill="#feca84"/>
      <path id="Path_116" data-name="Path 116" d="M13.5,9.869c2.095,2.56,4.655,4.655,6.982,7.215a5.289,5.289,0,0,1,.7,6.517,2.466,2.466,0,0,0-.7-3.026c-2.095-1.862-4.655-2.56-6.982-3.724a20.383,20.383,0,0,1-5.586-4.422C6.284,10.335,5.586,8.24,3.957,6.146A2.519,2.519,0,0,0,0,6.378c.465-.7.465-1.629,1.164-2.327.465-.233.7-.7,1.164-1.164A9.756,9.756,0,0,1,8.844.56,2.537,2.537,0,0,1,11.4,2.887C11.637,5.215,11.637,8.007,13.5,9.869Z" transform="translate(12356.897 3374.717)" fill="#fff9cd"/>
    </g>
  </g>
</svg>
