<svg xmlns="http://www.w3.org/2000/svg" viewBox="0 0 61.34 8.48"><defs><style>.cls-1{fill:#231f20;}</style></defs><g id="Layer_2" data-name="Layer 2"><g id="Layer_1-2" data-name="Layer 1"><path class="cls-1" d="M5.74,8.38H3.21L.6,2.12H0v-2H4.38v2H3.69L4.9,5.59,6.18,2.12H5.51v-2H8.79v2h-.6Z"/><path class="cls-1" d="M13,6.52l2.43.29A2.14,2.14,0,0,1,15,7.5a2.77,2.77,0,0,1-.71.52,4.2,4.2,0,0,1-2,.46,4.6,4.6,0,0,1-3-.83,2.63,2.63,0,0,1-1-2.15,2.74,2.74,0,0,1,1-2.17,3.87,3.87,0,0,1,2.65-.86,4,4,0,0,1,2.62.82,3.15,3.15,0,0,1,1.06,2.48H11.07c0,.92.35,1.38,1,1.38A.91.91,0,0,0,13,6.52ZM11.1,5h1.66c0-.12,0-.19,0-.2a1.2,1.2,0,0,0-.23-.77.75.75,0,0,0-.62-.3.68.68,0,0,0-.61.33,1.51,1.51,0,0,0-.21.82Z"/><path class="cls-1" d="M21,8.31h-4.5V6.53h.73V4.42h-.73V2.63h3.68v.72a3.76,3.76,0,0,1,2.33-.82,2.13,2.13,0,0,1,1.64.6,2.86,2.86,0,0,1,.54,1.94V6.53h.68V8.31H21.73V5.79a2.81,2.81,0,0,0-.14-1.09A.64.64,0,0,0,21,4.44a1.54,1.54,0,0,0-.85.3V6.53H21Z"/><path class="cls-1" d="M34.89,6.53V8.31H31.21V7.93a3.61,3.61,0,0,1-1.9.49,3.34,3.34,0,0,1-2.13-.73,2.51,2.51,0,0,1-.92-2.1,3,3,0,0,1,.85-2.27,3.24,3.24,0,0,1,2.29-.79A3.36,3.36,0,0,1,31.21,3V2h-.73V.16h3.67V6.53ZM31.22,5.45A1.55,1.55,0,0,0,31,4.56a.83.83,0,0,0-.73-.35c-.67,0-1,.43-1,1.29a1.5,1.5,0,0,0,.25.88.81.81,0,0,0,.73.35A.93.93,0,0,0,31,6.42,1.46,1.46,0,0,0,31.22,5.45Z"/><path class="cls-1" d="M35.83,5.44a2.63,2.63,0,0,1,1.05-2.11,4.37,4.37,0,0,1,2.85-.86,4.81,4.81,0,0,1,2.94.83A2.58,2.58,0,0,1,43.8,5.47a2.65,2.65,0,0,1-1.08,2.15,4.46,4.46,0,0,1-2.85.86,4.63,4.63,0,0,1-3-.86A2.68,2.68,0,0,1,35.83,5.44Zm3,0c0,.9.33,1.35,1,1.35s1-.45,1-1.37a1.62,1.62,0,0,0-.26-1,.85.85,0,0,0-.72-.35,1,1,0,0,0-.75.34A1.59,1.59,0,0,0,38.81,5.46Z"/><path class="cls-1" d="M49.28,8.31H44.7V6.53h.77V4.42H44.7V2.63h3.53V4.05a2.47,2.47,0,0,1,.61-.92,2,2,0,0,1,.81-.49,4.3,4.3,0,0,1,1.16-.11V5h-.25a3.74,3.74,0,0,0-1.34.18,1.15,1.15,0,0,0-.62.5,1.76,1.76,0,0,0-.18.83h.86Z"/><path class="cls-1" d="M54.36,5.55l2.11-.16c0,.87.44,1.3,1.21,1.3a1,1,0,0,0,.75-.27,1,1,0,0,0,.24-.67c0-.67-.44-1-1.33-1V3.38a1.37,1.37,0,0,0,.77-.24.78.78,0,0,0,.36-.7.81.81,0,0,0-.23-.6.89.89,0,0,0-.64-.22c-.56,0-.86.31-.9.92l-2.2-.11a2.22,2.22,0,0,1,1-1.83A4.13,4.13,0,0,1,57.83,0a3.76,3.76,0,0,1,2.42.66,2,2,0,0,1,.8,1.63,1.66,1.66,0,0,1-.34,1,1.78,1.78,0,0,1-.92.63,1.89,1.89,0,0,1,1.14.67,1.92,1.92,0,0,1,.41,1.25,2.13,2.13,0,0,1-1,1.85,4.4,4.4,0,0,1-2.56.67,4,4,0,0,1-2.51-.7A2.63,2.63,0,0,1,54.36,5.55Z"/></g></g></svg>