<svg xmlns="http://www.w3.org/2000/svg" viewBox="0 0 61.14 8.48"><defs><style>.cls-1{fill:#231f20;}</style></defs><g id="Layer_2" data-name="Layer 2"><g id="Layer_1-2" data-name="Layer 1"><path class="cls-1" d="M5.74,8.38H3.21L.6,2.12H0v-2H4.38v2H3.69L4.9,5.59,6.18,2.12H5.51v-2H8.79v2h-.6Z"/><path class="cls-1" d="M13,6.52l2.43.29A2.14,2.14,0,0,1,15,7.5a2.77,2.77,0,0,1-.71.52,4.2,4.2,0,0,1-2,.46,4.6,4.6,0,0,1-3-.83,2.63,2.63,0,0,1-1-2.15,2.74,2.74,0,0,1,1-2.17,3.87,3.87,0,0,1,2.65-.86,4,4,0,0,1,2.62.82,3.15,3.15,0,0,1,1.06,2.48H11.07c0,.92.35,1.38,1,1.38A.91.91,0,0,0,13,6.52ZM11.1,5h1.66c0-.12,0-.19,0-.2a1.2,1.2,0,0,0-.23-.77.75.75,0,0,0-.62-.3.68.68,0,0,0-.61.33,1.51,1.51,0,0,0-.21.82Z"/><path class="cls-1" d="M21,8.31h-4.5V6.53h.73V4.42h-.73V2.63h3.68v.72a3.76,3.76,0,0,1,2.33-.82,2.13,2.13,0,0,1,1.64.6,2.86,2.86,0,0,1,.54,1.94V6.53h.68V8.31H21.73V5.79a2.81,2.81,0,0,0-.14-1.09A.64.64,0,0,0,21,4.44a1.54,1.54,0,0,0-.85.3V6.53H21Z"/><path class="cls-1" d="M34.89,6.53V8.31H31.21V7.93a3.61,3.61,0,0,1-1.9.49,3.34,3.34,0,0,1-2.13-.73,2.51,2.51,0,0,1-.92-2.1,3,3,0,0,1,.85-2.27,3.24,3.24,0,0,1,2.29-.79A3.36,3.36,0,0,1,31.21,3V2h-.73V.16h3.67V6.53ZM31.22,5.45A1.55,1.55,0,0,0,31,4.56a.83.83,0,0,0-.73-.35c-.67,0-1,.43-1,1.29a1.5,1.5,0,0,0,.25.88.81.81,0,0,0,.73.35A.93.93,0,0,0,31,6.42,1.46,1.46,0,0,0,31.22,5.45Z"/><path class="cls-1" d="M35.83,5.44a2.63,2.63,0,0,1,1.05-2.11,4.37,4.37,0,0,1,2.85-.86,4.81,4.81,0,0,1,2.94.83A2.58,2.58,0,0,1,43.8,5.47a2.65,2.65,0,0,1-1.08,2.15,4.46,4.46,0,0,1-2.85.86,4.63,4.63,0,0,1-3-.86A2.68,2.68,0,0,1,35.83,5.44Zm3,0c0,.9.33,1.35,1,1.35s1-.45,1-1.37a1.62,1.62,0,0,0-.26-1,.85.85,0,0,0-.72-.35,1,1,0,0,0-.75.34A1.59,1.59,0,0,0,38.81,5.46Z"/><path class="cls-1" d="M49.28,8.31H44.7V6.53h.77V4.42H44.7V2.63h3.53V4.05a2.47,2.47,0,0,1,.61-.92,2,2,0,0,1,.81-.49,4.3,4.3,0,0,1,1.16-.11V5h-.25a3.74,3.74,0,0,0-1.34.18,1.15,1.15,0,0,0-.62.5,1.76,1.76,0,0,0-.18.83h.86Z"/><path class="cls-1" d="M59.46,5.77h1.68l-.07,2.54H54.59c0-.16,0-.24,0-.25a4.16,4.16,0,0,1,.5-2,4.25,4.25,0,0,1,.69-.92,8.89,8.89,0,0,1,1.09-.92A11.1,11.1,0,0,0,58.24,3a1.19,1.19,0,0,0,.31-.74.81.81,0,0,0-.21-.58.81.81,0,0,0-.64-.23q-.9,0-.9,1.14l-2.1-.06a2.4,2.4,0,0,1,.93-2A3.91,3.91,0,0,1,57.84,0a3.81,3.81,0,0,1,2.35.67,2.1,2.1,0,0,1,.91,1.76,2.07,2.07,0,0,1-.46,1.28A5.45,5.45,0,0,1,58.85,5a11.4,11.4,0,0,0-1.43.81,2.17,2.17,0,0,0-.56.66h2.57Z"/></g></g></svg>