<?xml version="1.0" encoding="UTF-8"?><svg id="Layer_2" xmlns="http://www.w3.org/2000/svg" viewBox="0 0 198.6382 248.2082"><defs><style>.cls-1{fill:#f05060;}.cls-2{fill:#fcb86e;}.cls-3{fill:#f68c63;}</style></defs><g id="Layer_4"><g id="highlight3"><path class="cls-1" d="M48.9842,11.4747V0h-11.4747c.2581,6.2169,5.2578,11.2166,11.4747,11.4747Z"/><path class="cls-1" d="M48.9873,87.2757v11.4747h-11.4747c.2581-6.2169,5.2578-11.2166,11.4747-11.4747Z"/><rect class="cls-1" x="18.7438" y="130.8336" width="23.9997" height="11.4747" transform="translate(-105.8272 167.3145) rotate(-90)"/><rect class="cls-1" x="6.25" y="93.3334" width="11.4873" height="23.9873" transform="translate(-93.3334 117.3207) rotate(-90)"/><path class="cls-1" d="M149.2455,137.0927v11.4747h11.4747c-.2581-6.2169-5.2578-11.2166-11.4747-11.4747Z"/><rect class="cls-1" x="155.4893" y="155.6629" width="23.9997" height="11.4747" transform="translate(328.8895 -6.0888) rotate(90)"/><path class="cls-1" d="M49.7141,37.5126v11.4747h11.4747c-.2581-6.2169-5.2578-11.2166-11.4747-11.4747Z"/><rect class="cls-1" x="55.9579" y="81.0705" width="23.9997" height="11.4747" transform="translate(-18.85 154.7656) rotate(-90)"/><rect class="cls-1" x="80.9641" y="43.5703" width="11.4873" height="23.9873" transform="translate(31.1438 142.2717) rotate(-90)"/><path class="cls-1" d="M87.2268,99.5803h11.4747v11.4747c-6.2169-.2581-11.2166-5.2578-11.4747-11.4747Z"/><rect class="cls-1" x="118.2814" y="130.8336" width="23.9997" height="11.4747" transform="translate(-6.2898 266.8521) rotate(-90)"/><rect class="cls-1" x="105.7876" y="93.3335" width="11.4873" height="23.9873" transform="translate(6.204 216.8583) rotate(-90)"/><path class="cls-1" d="M148.531,210.6955v-11.4747h-11.4747c.258,6.2168,5.2578,11.2166,11.4747,11.4747Z"/><rect class="cls-1" x="118.2876" y="180.6506" width="23.9997" height="11.4747" transform="translate(-56.1009 316.6748) rotate(-89.9998)"/><rect class="cls-1" x="105.7938" y="143.1504" width="11.4873" height="23.9873" transform="translate(-43.6069 266.6811) rotate(-89.9998)"/></g><g id="highlight2"><path class="cls-3" d="M36.5095,0h-11.5126c.2648,13.1117,10.8756,23.7225,23.9873,23.9873V12.4747C42.2157,12.2154,36.7688,6.7685,36.5095,0Z"/><path class="cls-3" d="M36.5126,98.7504h-11.5126c.2648-13.1117,10.8756-23.7225,23.9873-23.9873v11.5126c-6.7685,.2593-12.2154,5.7062-12.4747,12.4747Z"/><path class="cls-3" d="M24,98.7504H12.5c.2675-20.0042,16.4832-36.2198,36.4873-36.4873v11.5c-13.6629,.2651-24.7222,11.3244-24.9873,24.9873Z"/><rect class="cls-3" x="31.2501" y="130.8336" width="23.9997" height="11.4747" transform="translate(-93.3209 179.8209) rotate(-90)"/><path class="cls-3" d="M174.6382,148.1623h11.5c-.2675-20.0042-16.4832-36.2198-36.4873-36.4873v11.5c13.6629,.2651,24.7222,11.3244,24.9873,24.9873Z"/><rect class="cls-3" x="142.983" y="155.6629" width="23.9997" height="11.4747" transform="translate(316.3832 6.4175) rotate(90)"/><rect class="cls-3" x="167.9957" y="168.1567" width="23.9997" height="11.4747" transform="translate(353.8896 -6.1014) rotate(90)"/><path class="cls-3" d="M62.1887,48.9873h11.5126c-.2648-13.1117-10.8756-23.7225-23.9873-23.9873v11.5126c6.7685,.2593,12.2154,5.7062,12.4747,12.4747Z"/><path class="cls-3" d="M74.7014,48.9873h11.5c-.2675-20.0042-16.4832-36.2198-36.4873-36.4873v11.5c13.6629,.2651,24.7222,11.3244,24.9873,24.9873Z"/><rect class="cls-3" x="43.4516" y="81.0705" width="23.9997" height="11.4747" transform="translate(-31.3563 142.2593) rotate(-90)"/><rect class="cls-3" x="68.4642" y="68.5767" width="23.9997" height="11.4747" transform="translate(6.1501 154.7781) rotate(-90)"/><path class="cls-3" d="M98.7014,124.6687v11.5c-20.0042-.2675-36.2198-16.4832-36.4873-36.4874h11.5c.2651,13.6629,11.3244,24.7223,24.9873,24.9874Z"/><rect class="cls-3" x="105.7751" y="118.3399" width="23.9997" height="11.4747" transform="translate(-6.3024 241.852) rotate(-90)"/><path class="cls-3" d="M136.0564,199.2208h-11.5126c.2648,13.1117,10.8756,23.7225,23.9873,23.9873v-11.5126c-6.7685-.2593-12.2154-5.7062-12.4746-12.4747Z"/><rect class="cls-3" x="130.7939" y="180.6506" width="23.9997" height="11.4747" transform="translate(-43.5946 329.1812) rotate(-89.9998)"/><rect class="cls-3" x="105.7813" y="168.1568" width="23.9997" height="11.4747" transform="translate(-56.1133 291.6748) rotate(-89.9998)"/><path class="cls-3" d="M161.714,248.2081h11.5126c-.2647-13.1117-10.8756-23.7225-23.9872-23.9873v11.5126c6.7685,.2593,12.2154,5.7062,12.4746,12.4747Z"/></g><g id="highlight1"><path class="cls-2" d="M11.9054,98.345H.4054c.2689-26.8967,22.0906-48.7184,48.9873-48.9873v11.5c-20.5554,.2676-37.2197,16.9319-37.4873,37.4873Z"/><rect class="cls-2" x="25" y="99.6813" width="23.9873" height="23.9873" transform="translate(-74.6813 148.6686) rotate(-90)"/><polygon class="cls-2" points=".3991 111.6719 11.8738 111.6719 11.8738 136.6907 24.399 136.6907 24.399 148.1654 .3993 148.1654 .3991 111.6719"/><path class="cls-2" d="M187.1382,148.1619h11.5c-.2689-26.8967-22.0907-48.7184-48.9873-48.9873v11.5c20.5554,.2676,37.2197,16.9319,37.4873,37.4873Z"/><rect class="cls-2" x="149.2455" y="174.4004" width="23.9873" height="23.9873" transform="translate(347.6333 25.155) rotate(90)"/><path class="cls-2" d="M87.2014,48.9873h11.5C98.4325,22.0906,76.6107,.2688,49.714,0V11.5c20.5554,.2676,37.2197,16.9319,37.4873,37.4873Z"/><polygon class="cls-2" points="98.7076 62.26 87.233 62.26 87.233 87.2788 74.7078 87.2788 74.7079 98.7535 98.7075 98.7534 98.7076 62.26"/><path class="cls-2" d="M98.7014,137.1687v11.5c-26.8967-.2689-48.7184-22.0907-48.9873-48.9874h11.5c.2676,20.5554,16.9318,37.2198,37.4873,37.4874Z"/><rect class="cls-2" x="124.943" y="99.1781" width="23.9873" height="23.9873" transform="translate(25.7648 248.1083) rotate(-90)"/><path class="cls-2" d="M111.0437,199.2208h-11.5c.2688,26.8967,22.0906,48.7185,48.9872,48.9874v-11.5c-20.5554-.2676-37.2197-16.9319-37.4872-37.4874Z"/><rect class="cls-2" x="124.9492" y="148.9951" width="23.9873" height="23.9873" transform="translate(-24.0462 297.9312) rotate(-89.9998)"/><polygon class="cls-2" points="99.5376 161.8942 111.0122 161.8943 111.0122 186.9131 123.5373 186.9131 123.5373 198.3878 99.5376 198.3877 99.5376 161.8942"/><path class="cls-2" d="M186.7266,248.2082h11.5c-.2688-26.8966-22.0905-48.7185-48.9872-48.9874v11.5c20.5554,.2676,37.2197,16.932,37.4872,37.4874Z"/></g></g></svg>