<?xml version="1.0" encoding="UTF-8"?><svg id="Layer_2" xmlns="http://www.w3.org/2000/svg" viewBox="0 0 139.6787 98.6345"><defs><style>.cls-1{fill:#f78c62;}.cls-2{fill:#ffb96e;}.cls-3{fill:#f64e5f;}</style></defs><g id="Layer_2-2"><g id="LOGO"><g id="highlight3"><path id="highlight2-4" class="cls-1" d="M87.4755,31.092l8.1317-8.1317c-14.3342-13.956-37.2667-13.956-51.6008,0l8.1317,8.1317c9.8486-9.4737,25.4888-9.4737,35.3374,0Z"/><path id="highlight3-2" class="cls-1" d="M52.2032,67.5424l-8.1317,8.1317c14.3342,13.956,37.2667,13.956,51.6008,0l-8.1317-8.1317c-9.8486,9.4737-25.4888,9.4737-35.3374,0Z"/><path id="highlight3-3" class="cls-1" d="M43.3644,76.3813l-8.1317,8.1317c19.2089,18.8287,50.0696,18.8287,69.2785,0l-8.1317-8.1317c-14.7241,14.3457-38.291,14.3457-53.0151,0Z"/><rect id="highlight3-4" class="cls-1" x="40.3276" y="37.291" width="23.9873" height="23.9873" transform="translate(-19.525 51.4318) rotate(-45)"/><polygon id="highlight3-5" class="cls-1" points="25.8047 75.0939 33.9185 66.98 16.2275 49.2891 25.0842 40.4325 16.9703 32.3186 0 49.289 25.8047 75.0939"/><path id="highlight3-6" class="cls-1" d="M96.3143,22.2532l8.1317-8.1317c-19.2089-18.8287-50.0696-18.8287-69.2785,0l8.1317,8.1317c14.7241-14.3457,38.291-14.3457,53.0151,0Z"/><rect id="highlight3-7" class="cls-1" x="75.3638" y="37.3561" width="23.9873" height="23.9873" transform="translate(-9.3091 76.2253) rotate(-45)"/><polygon id="highlight3-8" class="cls-1" points="113.8741 23.5406 105.7602 31.6544 123.4512 49.3453 114.5946 58.202 122.7084 66.3158 139.6787 49.3454 113.8741 23.5406"/></g><g id="highlight2"><rect id="highlight2-2" class="cls-2" x="33.3344" y="15.1877" width="11.4747" height="23.9997" transform="translate(-7.7806 35.591) rotate(-45)"/><rect id="highlight2-3" class="cls-2" x="24.4824" y="41.7087" width="11.4747" height="23.9997" transform="translate(-29.1265 37.0995) rotate(-45)"/><rect id="highlight2-5" class="cls-2" x="94.8696" y="59.4471" width="11.4747" height="23.9997" transform="translate(-21.0535 92.0661) rotate(-45)"/><rect id="highlight2-6" class="cls-2" x="103.7217" y="32.926" width="11.4747" height="23.9997" transform="translate(.2924 90.5577) rotate(-45)"/><path id="highlight2-7" class="cls-2" d="M61.051,58.6947l-8.1407,8.1407c9.4586,9.0841,24.4646,9.0841,33.9232,0l-8.1407-8.1407c-4.9694,4.6027-12.6725,4.6027-17.6418,0Z"/><path id="highlight2-8" class="cls-2" d="M78.6277,39.9398l8.1407-8.1407c-9.4586-9.0841-24.4646-9.0841-33.9232,0l8.1407,8.1407c4.9694-4.6027,12.6725-4.6027,17.6418,0Z"/></g><g id="highlight1"><path id="highlight1-2" class="cls-3" d="M77.9857,57.9875l-8.1138-8.1138-8.1138,8.1138c4.5785,4.2135,11.6492,4.2135,16.2276,0Z"/><rect id="highlight1-3" class="cls-3" x="24.4911" y="24.031" width="11.4747" height="23.9997" transform="translate(-16.624 31.928) rotate(-45)"/><rect id="highlight1-4" class="cls-3" x="27.0694" y="65.6381" width="23.9873" height="11.4873" transform="translate(-39.0332 48.529) rotate(-45)"/><path id="highlight1-5" class="cls-3" d="M61.693,40.6469l8.1138,8.1138,8.1138-8.1138c-4.5785-4.2135-11.6492-4.2135-16.2276,0Z"/><rect id="highlight1-6" class="cls-3" x="103.7128" y="50.6038" width="11.4747" height="23.9997" transform="translate(-12.2102 95.7292) rotate(-45)"/><rect id="highlight1-7" class="cls-3" x="88.6221" y="21.509" width="23.9873" height="11.4873" transform="translate(10.1991 79.1282) rotate(-45)"/></g></g></g></svg>